<?xml version="1.0" encoding="utf-8"?>
<!-- Generator: Adobe Illustrator 16.0.0, SVG Export Plug-In . SVG Version: 6.00 Build 0)  -->
<!DOCTYPE svg PUBLIC "-//W3C//DTD SVG 1.1//EN" "http://www.w3.org/Graphics/SVG/1.1/DTD/svg11.dtd">
<svg version="1.1" id="Layer_1" xmlns="http://www.w3.org/2000/svg" xmlns:xlink="http://www.w3.org/1999/xlink" x="0px" y="0px"
	 width="120.415px" height="102.171px" viewBox="0 0 120.415 102.171" enable-background="new 0 0 120.415 102.171"
	 xml:space="preserve">
<g>
	<g>
		<path fill="#C4161C" d="M26.681,84.55h1.857l2.307,11.457l2.303-11.457h1.751l-3.147,14.723h-1.956L26.681,84.55z"/>
		<path fill="#C4161C" d="M36.442,99.273V84.55h1.825v14.723H36.442z"/>
		<path fill="#C4161C" d="M41.096,99.273V88.895h-0.908V87.5h0.908V84.55h5.474v1.391h-3.637V87.5h4.575v1.396h-4.575v8.985h3.637
			v1.393H41.096z M43.828,82.08l-1.365,1.102h-1.366l2.731-2.209l2.742,2.209h-1.367L43.828,82.08z M44.708,101.429
			c0,0.494-0.309,0.742-0.935,0.742c-0.606,0-0.911-0.248-0.911-0.742c0-0.489,0.304-0.73,0.911-0.73
			C44.399,100.699,44.708,100.94,44.708,101.429z"/>
		<path fill="#C4161C" d="M50.881,99.273V85.941h-2.745V84.55h7.32v1.391h-2.745v13.332H50.881z"/>
		<path fill="#C4161C" d="M69.145,99.273V89.71l-3.648-3.135v12.696h-1.838V84.55h1.838l3.648,3.135V84.55h1.834v14.723H69.145z"/>
		<path fill="#C4161C" d="M79.263,99.273v-2.932h-3.642v2.932h-1.834v-2.932h-0.904v-1.391h0.904v-6.844
			c0-1.005,0.135-1.732,0.409-2.188c0.642-1.026,1.722-1.541,3.237-1.541c1.311,0,2.309,0.388,2.979,1.164
			c0.457,0.543,0.683,1.359,0.683,2.447v6.961h0.915v1.391h-0.915v2.931L79.263,99.273L79.263,99.273z M79.263,87.373
			c0-1.082-0.57-1.625-1.722-1.625c-1.278,0-1.92,0.551-1.92,1.648v7.555h3.642V87.373z"/>
		<path fill="#C4161C" d="M91.899,99.273V86.845l-3.064,3.225l-3.08-3.225v12.428h-1.83V84.55h1.83l3.08,3.135l3.064-3.135h1.834
			v14.723H91.899z"/>
	</g>
	<g>
		<polygon fill="#FFFFFF" points="37.327,1.356 32.215,1.735 30.031,3.999 30.678,11.331 30.031,25.055 29.651,46.111 
			31.442,53.102 30.938,56.255 32.809,61.57 35.536,62.141 37.327,62.992 40.827,62.224 47.582,62.31 71.684,62.395 80.038,62.054 
			86.857,61.033 89.518,56.597 90.566,37.633 89.929,24.712 88.963,22.585 88.963,19.685 89.518,15.593 89.518,13.458 90.566,6.641 
			87.793,2.208 75.79,1.735 62.907,0.758 52.175,1.27 		"/>
		<path fill="#C4161C" d="M61.896,0.223c-0.438,0.421-0.877,0.383-1.67,0.271c-0.707-0.1-1.558-0.214-2.418,0.239
			c-1.203-0.451-2.386-0.339-3.435-0.226c-0.723,0.074-1.405,0.147-2.08,0.052l-0.032-0.001l-0.027-0.004
			c-0.426-0.024-0.82,0.066-1.165,0.147c-0.657,0.154-0.751,0.135-0.882-0.025L49.952,0.39h-8.62l-0.21,0.186
			c-0.158,0.132-0.305,0.121-0.901-0.066c-0.291-0.095-0.628-0.203-0.988-0.225l-0.095-0.009l-0.086,0.018
			c-0.753,0.132-1.498,0.132-2.288,0.138c-1.304,0.006-2.65,0.029-3.979,0.648c-0.108-0.007-0.281-0.037-0.407-0.062
			c-0.359-0.062-0.7-0.127-1.02-0.073l-0.062,0.012l-0.07,0.023c-0.461,0.167-0.589,0.618-0.667,0.89c0,0,0,0.015-0.006,0.021
			c-0.016,0.019-0.046,0.042-0.046,0.042c-0.212,0.204-0.386,0.406-0.5,0.795c-0.017,0.045-0.464,1.219-0.464,1.219l0.006,0.119
			v0.017c0,0.756,0.172,1.561,0.345,2.414c0.171,0.823,0.35,1.67,0.35,2.419c0,0.203-0.019,0.397-0.046,0.585l-0.778,6.421
			l0.021,0.074c0.028,0.261,0.038,0.522,0.038,0.791c0,0.484-0.038,0.991-0.081,1.511c-0.046,0.581-0.094,1.168-0.094,1.778
			c0,0.498,0.036,1.013,0.127,1.55c-0.04,1.851-0.15,3.748-0.263,5.578c-0.135,2.27-0.276,4.592-0.276,6.908
			c0,1.293,0.047,2.587,0.156,3.868c-0.196,0.864-0.276,1.724-0.276,2.565c0,1.029,0.103,2.037,0.206,3.03
			c0.101,0.965,0.203,1.958,0.203,2.947c0,0.222-0.007,0.444-0.019,0.667l-0.018,0.366l0.265,0.244
			c0.148,0.128,0.188,0.354,0.248,0.739c0.046,0.323,0.104,0.711,0.301,1.087c-0.031,0.189-0.066,0.38-0.066,0.567
			c0,1.095,0.417,2.109,0.793,3.023c0,0,0.073,0.174,0.127,0.322c-0.121,0.735-0.274,1.182-0.454,1.723l-0.496,1.512l0.26,0.305
			c0.453,0.58,0.686,1.309,0.931,2.084c0.295,0.932,0.636,1.991,1.428,2.883l0.087,0.092l0.098,0.062
			c0.964,0.568,2.041,0.819,3.2,0.771c0.84,0.732,1.951,0.848,3.326,0.312l0.129-0.053l0.107-0.088
			c0.27-0.239,0.598-0.225,1.333-0.109c0.56,0.086,1.196,0.186,1.865,0.008l0.133-0.031l0.112-0.08
			c0.166-0.115,0.531-0.032,0.919,0.049c0.519,0.113,1.151,0.229,1.759-0.02h9.887c0.179,0,0.4,0.051,0.633,0.098
			c0.566,0.121,1.38,0.295,2.072-0.189c1.396,0.076,2.693,0.076,3.945,0.07c1.498-0.008,2.916-0.014,4.447,0.123l0.034,0.006h6.819
			c0.681,0.436,1.398,0.234,1.851,0.109c0.513-0.146,0.595-0.135,0.712-0.033l0.247,0.217l2.653-0.225l4.438-0.408
			c0.541-0.062,0.871-0.256,1.137-0.414c0.205-0.121,0.34-0.199,0.593-0.236c0.106-0.007,0.544,0.02,0.841,0.039
			c0.684,0.047,1.004,0.061,1.223,0.025l0.477-0.064c0,0,0.52-1.604,0.541-1.678c0.1-0.247,0.212-0.375,0.357-0.544
			c0.185-0.212,0.407-0.474,0.584-0.915c1.192-2.107,1.617-5.18,1.847-7.63c0.079-1.58,0.227-3.049,0.366-4.472
			c0.199-2.043,0.385-3.989,0.385-6.065c0-0.255,0-0.514-0.006-0.776c-0.057-2.497-0.305-5.142-0.543-7.695
			c-0.262-2.756-0.523-5.608-0.573-8.389l-0.005-0.432l-0.377-0.22c-0.147-0.088-0.235-0.14-0.235-0.333
			c0-0.138,0.048-0.347,0.134-0.697c0.088-0.349,0.201-0.771,0.201-1.229c0-0.359-0.07-0.733-0.273-1.114l0.025,0.032
			c0,0-0.123-0.236-0.229-0.453c0.658-0.553,0.799-1.277,0.799-1.971c0-0.263-0.016-0.521-0.04-0.761
			c-0.019-0.227-0.03-0.448-0.03-0.645c0-0.123,0.006-0.235,0.018-0.337l-0.01,0.058c0.034-0.141,0.047-0.276,0.047-0.411
			c0-0.436-0.156-0.818-0.272-1.118c-0.052-0.135-0.146-0.358-0.146-0.438v-0.009c0.006,0,0.029-0.031,0.094-0.082l0.246-0.195
			l0.05-0.305c0.198-1.418,0.307-2.765,0.307-4.075c0-1.534-0.144-3.019-0.426-4.525C90.336,4.36,90.174,4.045,90,3.711
			c-0.086-0.16-0.219-0.422-0.242-0.509c-0.073-0.347-0.319-0.564-0.502-0.725L89.25,2.474c0.164-0.196,0.412-0.5,0.412-0.5
			L88.95,1.47c-0.354-0.221-0.619-0.224-0.861-0.196c-1.211-0.397-2.493-0.376-3.738-0.354c0,0-0.514,0.006-0.707,0.009
			c-0.693-0.264-1.828-0.638-2.747,0.017c-0.063-0.017-0.14-0.04-0.28-0.104L80.051,0.63l-0.1,0.032
			c-4.203,0.214-8.025,0.214-12.389,0l-0.102-0.009l-0.1,0.021c-0.876,0.188-1.695-0.021-2.641-0.271
			c-0.709-0.184-1.446-0.37-2.268-0.398L62.131,0L61.896,0.223z M62.652,1.582c0.56,0.048,1.11,0.174,1.688,0.324
			c0.988,0.252,2.016,0.5,3.183,0.296c4.345,0.215,8.166,0.215,12.345,0.009c0.067,0.023,0.146,0.05,0.146,0.05
			c0.291,0.132,0.744,0.324,1.333,0.194l0.22-0.049l0.16-0.157c0.271-0.269,0.835-0.085,1.486,0.167l0.141,0.053l0.16,0.006
			l0.867-0.012c1.16-0.025,2.261-0.04,3.228,0.282c0.009,0.001,0.022,0.001,0.035,0.006c0.101,0.427,0.399,0.712,0.601,0.882
			c0,0,0.041,0.038,0.07,0.066c0.072,0.222,0.184,0.456,0.316,0.717c0.082,0.164,0.226,0.435,0.248,0.525
			c0.266,1.402,0.395,2.793,0.395,4.231c0,1.158-0.094,2.354-0.264,3.604c-0.312,0.341-0.424,0.699-0.424,1.037
			c0,0.403,0.148,0.776,0.252,1.038c0.082,0.197,0.16,0.403,0.16,0.542c0,0.02,0,0.041,0,0.059l-0.013,0.028v0.034
			c-0.032,0.19-0.042,0.381-0.042,0.569c0,0.255,0.018,0.511,0.033,0.761c0.021,0.257,0.04,0.475,0.04,0.657
			c0,0.368-0.065,0.596-0.231,0.752c-0.068,0.032-0.129,0.063-0.129,0.063c-0.154,0.062-0.459,0.191-0.594,0.556
			c-0.034,0.1-0.053,0.197-0.053,0.288c0,0.247,0.117,0.471,0.24,0.718l0.352,0.716c0.066,0.127,0.091,0.259,0.091,0.407
			c0,0.227-0.06,0.495-0.147,0.838c-0.078,0.3-0.176,0.682-0.176,1.082c0,0.473,0.152,0.961,0.618,1.379
			c0.062,2.722,0.318,5.474,0.569,8.144c0.24,2.64,0.475,5.137,0.533,7.587c0.01,0.241,0.012,0.488,0.012,0.732
			c0,2.007-0.188,3.915-0.378,5.921c-0.142,1.435-0.291,2.922-0.372,4.507c-0.191,2.1-0.588,5.152-1.67,7.023l-0.035,0.055
			l-0.025,0.062c-0.08,0.223-0.175,0.324-0.322,0.502c-0.192,0.219-0.43,0.498-0.629,0.988l-0.01,0.025c0,0-0.132,0.395-0.244,0.75
			c-0.149-0.01-0.313-0.021-0.453-0.025c-0.584-0.041-0.924-0.064-1.145-0.031c-0.559,0.074-0.91,0.285-1.17,0.435
			c-0.201,0.122-0.314,0.185-0.516,0.209l-4.397,0.405c0,0-1.614,0.135-2.049,0.174c-0.694-0.41-1.41-0.209-1.856-0.086
			c-0.508,0.146-0.563,0.125-0.647,0.047l-0.222-0.208h-7.332c-1.584-0.142-3.09-0.136-4.541-0.13
			c-1.324,0.007-2.689,0.016-4.152-0.082l-0.368-0.029l-0.248,0.271c-0.131,0.138-0.342,0.117-0.919-0.002
			c-0.287-0.065-0.614-0.135-0.958-0.135H45.196l-0.187,0.115c-0.162,0.098-0.531,0.02-0.891-0.062
			c-0.527-0.115-1.227-0.238-1.882,0.08c-0.364,0.094-0.792,0.027-1.239-0.041c-0.729-0.111-1.631-0.232-2.427,0.355
			c-1.102,0.412-1.553,0.145-1.84-0.186l-0.258-0.297l-0.396,0.037c-0.938,0.086-1.76-0.086-2.519-0.5
			c-0.515-0.631-0.772-1.402-1.033-2.226c-0.236-0.739-0.494-1.5-0.945-2.202c0.099-0.312,0.236-0.723,0.236-0.723
			c0.216-0.637,0.409-1.186,0.563-2.189l0.029-0.207l-0.296-0.736c-0.333-0.813-0.674-1.646-0.674-2.45
			c0-0.189,0.019-0.376,0.058-0.558l0.084-0.352l-0.221-0.286c-0.1-0.14-0.132-0.387-0.182-0.674
			c-0.059-0.391-0.145-0.898-0.464-1.347c0-0.149,0.013-0.3,0.013-0.447c0-1.063-0.112-2.096-0.212-3.103
			c-0.099-0.981-0.199-1.932-0.199-2.871c0-0.788,0.07-1.564,0.26-2.344l0.035-0.128l-0.013-0.126
			c-0.12-1.265-0.16-2.545-0.16-3.833c0-2.273,0.137-4.568,0.271-6.812c0.112-1.866,0.23-3.795,0.264-5.694v-0.077L30.96,21.45
			c-0.081-0.464-0.116-0.929-0.116-1.383c0-0.558,0.046-1.103,0.094-1.645c0.04-0.54,0.086-1.088,0.086-1.644
			c0-0.279-0.017-0.562-0.046-0.848c0.005-0.083,0.371-3.055,0.371-3.055l0.383-3.187L31.727,9.73
			c0.042-0.271,0.058-0.547,0.058-0.826c0-0.9-0.187-1.826-0.377-2.727c-0.151-0.731-0.289-1.42-0.305-2.002
			c0.083-0.201,0.354-0.911,0.354-0.911l0.027-0.094c0,0,0.012-0.047,0.012-0.056c0.014,0,0.068-0.054,0.068-0.054l0.205-0.198
			c0,0,0.091-0.191,0.169-0.355c0.059,0.013,0.116,0.021,0.166,0.027c0.322,0.058,0.622,0.114,0.891,0.084l0.147-0.015l0.131-0.068
			c1.07-0.557,2.252-0.557,3.498-0.564c0.769-0.003,1.566-0.016,2.393-0.144c0.164,0.019,0.372,0.077,0.587,0.147
			c0.547,0.176,1.346,0.424,2.11-0.044h7.416c0.722,0.601,1.565,0.409,2.146,0.273c0.271-0.064,0.517-0.123,0.718-0.11L52.08,2.087
			c0.865,0.121,1.672,0.036,2.455-0.047c1.105-0.118,2.055-0.214,3.002,0.247l0.429,0.206l0.378-0.282
			c0.451-0.341,0.902-0.293,1.663-0.188C60.79,2.132,61.743,2.252,62.652,1.582"/>
		<path fill="#C4161C" d="M57.488,3.622c0.478,0.042,1.17-0.173,1.261,0.433c0.129,1.56,0.387,3.114-0.26,4.63
			c-2.903,2.599-7.146,2.338-10.219,4.719c-0.127,1.818,1.471,3.204,1.129,5.064c4.326-1.472,8.566-4.845,13.768-3.419
			c0.863,0.432,0.217,1.86,1.644,1.432c0.3,0.388-0.606,1.036,0.3,1.167c-0.906,0.649,0.736,1.339-0.39,1.689
			c0.954,0.779-0.347,1.473-0.517,2.117c-4.416,2.252-8.916,4.201-13.504,5.933c-0.307,0.562,0.217,1.167,0.381,1.688
			c2.728,1.128,4.81-1.299,7.498-1.254c0-0.565,0.735-0.734,1.169-0.52c1.812,0.646,3.714,1.299,4.757,3.202
			c0.088,1.254-0.863,2.426-0.389,3.549c-3.027,2.468-7.143,4.767-11.298,2.901c-3.418-0.997-6.015-4.286-7.875-7.226
			c-4.025,1.64-8.354,3.545-13.074,2.551c-0.695-0.778-1.949-1.558-1.343-2.551c-0.129-0.348-0.733-0.306-0.394-0.74l1.089-0.043
			l12.078-7.188c0.435-2.164,0.734-4.372,1.25-6.452c-1.898-0.125-3.802-0.171-5.536-0.731c-0.431-0.562-1.171-1.128-1.171-1.949
			c-0.608-1.037-2.074-2.165-1.172-3.505L36.453,8.34c3.342,0.91,5.5-2.553,8.316-3.635C48.447,2.928,53.858-0.362,57.488,3.622"/>
		<path fill="#C4161C" d="M84.9,14.011c1.013,0.519,0.167,1.211,1.013,1.772c-0.088,0.65-0.422,0.998-0.261,1.733
			c-1.933,1.384-5.467,1.384-8.493,1.598c-2.699-0.385-5.053-1.511-6.486-2.765c0.341-0.953-1.344-1.559-1.094-2.338
			C74.211,13.879,80.186,12.841,84.9,14.011"/>
		<path fill="#C4161C" d="M65.235,39.282c0.314,0.14,0.98,0.244,0.805,0.806c-0.098,0.455-0.734,0.596-0.875,1.088
			c-0.912,1.295-1.824,2.946-3.615,3.083c-0.659-0.137-1.471-0.173-1.926-0.77c-0.627-1.019-1.467-2.313-0.909-3.505
			c0.95,1.016,2.106,0.175,3.158,0.034c0.211-0.212,0.073-0.632-0.107-0.876c-0.486-0.594-1.156-0.808-1.898-0.808
			c0.353-0.208,0.671-0.804,1.192-0.7C62.429,38.265,64.217,38.053,65.235,39.282"/>
		<path fill="#C4161C" d="M80.09,23.91c0.648,0.863,0.604,1.86,1.562,2.507c-0.52,0.348-0.138,0.998-0.219,1.345
			c-1.387,0.734-3.292,0.303-4.375,1.555c-1.943-0.214-3.374-1.644-4.932-2.811c0.217-0.564,0.912-0.391,1.343-0.779
			C75.2,23.994,77.752,23.736,80.09,23.91"/>
		<path fill="#C4161C" d="M85.937,30.486c1.293-0.303,1.731,1.388,2.552,2.079c-0.088,0.435,0.129,0.779,0.475,0.958
			c-0.604,0.992-0.736,2.506-0.78,3.891c-0.69,2.558-2.375,4.721-3.587,7.103L84.2,44.036c-2.203,3.334-5.148,6.495-8.006,9.656
			c-0.994,0.647-1.857,1.515-2.725,2.425c-2.815,2.512-6.32,3.68-9.521,5.453c-0.955-0.389-2.428,0.262-2.859-1.078
			c1.254,0.516,2.595-0.523,3.723-1.131c8.523-5.756,13.546-15.02,15.369-24.588l-0.176-0.17c-2.299,0.952-4.545,2.34-6.534,3.722
			c-1.688-0.128-3.033-1.17-4.372-2.165c-0.305-0.783,0.646-0.433,0.951-0.865C74.592,31.915,80.09,27.414,85.937,30.486"/>
		<path fill="#C4161C" d="M56.889,46.225c3.294,1.649,5.717,4.837,7.081,8.063c0,0.873,0.247,1.824-0.208,2.594
			c-0.494,0.84-1.403,0.736-2.213,0.879c-2.064-0.738-4.208-1.721-5.36-3.893c-1.297-1.264-2.102-2.838-2.454-4.56
			c-1.508-1.72-2.946-3.435-3.896-5.37c0.493-0.592,1.514-0.238,2.14-0.066L56.889,46.225z"/>
		<path fill="#C4161C" d="M47.008,50.327c0.806,2.979-1.161,5.574-3.053,7.364c-0.424,0.139-0.812,0.418-1.195,0.213
			c-0.04,0.137-0.21,0.242-0.316,0.381c-0.487-0.523-1.683,0-2.381-0.279c-1.266-0.352-2.246,0-3.543-0.102
			c2.455-2.912,2.908-6.77,4.207-10.241v-2.527c0.284,0,0.488-0.176,0.595-0.42C43.708,45.833,45.67,48.045,47.008,50.327"/>
	</g>
	<g>
		<rect y="67.22" width="120.415" height="12.438"/>
		<g>
			<path fill="#FFFFFF" d="M3.021,69.535h3.474l1.283,4.221h0.09c0.057-0.346,0.116-0.723,0.227-1.063l1.047-3.155h3.439
				l1.523,8.041h-3.262l-0.454-4.402h-0.066c-0.06,0.265-0.117,0.541-0.217,0.797l-1.347,3.605H6.795l-1.209-3.402
				c-0.102-0.342-0.182-0.664-0.214-1H5.268c-0.029,0.316-0.052,0.645-0.089,0.965l-0.393,3.438H1.523L3.021,69.535z"/>
			<path fill="#FFFFFF" d="M22.834,74.815c0,1.874-1.921,2.89-3.97,2.89c-2.039,0-3.961-1.016-3.961-2.89
				c0-1.983,1.813-3.028,3.961-3.028C21.026,71.787,22.834,72.832,22.834,74.815 M17.979,74.769c0,0.449,0.393,0.779,0.885,0.779
				c0.495,0,0.89-0.33,0.89-0.779c0-0.457-0.357-0.829-0.89-0.829C18.338,73.94,17.979,74.312,17.979,74.769"/>
			<rect x="24.047" y="73.47" fill="#FFFFFF" width="4.398" height="2.346"/>
			<path fill="#FFFFFF" d="M31.114,69.535h3.476l1.279,4.221h0.085c0.065-0.346,0.123-0.723,0.236-1.063l1.043-3.155h3.439
				l1.523,8.041h-3.26l-0.455-4.402h-0.063c-0.061,0.265-0.126,0.541-0.221,0.797l-1.343,3.605h-1.972l-1.206-3.402
				c-0.097-0.342-0.187-0.664-0.209-1h-0.105c-0.026,0.316-0.054,0.645-0.089,0.965l-0.396,3.438h-3.262L31.114,69.535z"/>
			<path fill="#FFFFFF" d="M50.921,74.815c0,1.874-1.914,2.89-3.959,2.89c-2.042,0-3.968-1.016-3.968-2.89
				c0-1.983,1.812-3.028,3.968-3.028C49.117,71.787,50.921,72.832,50.921,74.815 M46.072,74.769c0,0.449,0.394,0.779,0.89,0.779
				c0.493,0,0.887-0.33,0.887-0.779c0-0.457-0.362-0.829-0.887-0.829C46.429,73.94,46.072,74.312,46.072,74.769"/>
			<rect x="52.14" y="73.47" fill="#FFFFFF" width="4.398" height="2.346"/>
			<path fill="#FFFFFF" d="M58.09,69.535h4.269c2.173,0,3.769,0.961,3.769,2.951c0,1.645-1.182,2.664-3.063,2.664H61.34v2.428h-3.25
				V69.535z M61.34,73.128h0.328c0.596,0,1.229-0.088,1.229-0.736c0-0.629-0.688-0.664-1.238-0.664H61.34V73.128z"/>
			<path fill="#FFFFFF" d="M71.506,76.828H71.43c-0.572,0.533-1.092,0.879-1.992,0.879c-1.77,0-2.758-1.56-2.758-2.937
				c0-1.427,1.002-2.985,2.846-2.985c0.79,0,1.441,0.241,1.904,0.801h0.076l-0.102-0.674h3.118v5.664h-3.118L71.506,76.828z
				 M70.663,75.548c0.596,0,0.844-0.416,0.844-0.852c0-0.438-0.34-0.759-0.844-0.759s-0.83,0.362-0.83,0.778
				C69.833,75.167,70.081,75.548,70.663,75.548"/>
			<path fill="#FFFFFF" d="M81.148,74.578c-0.333-0.17-0.569-0.309-0.976-0.309c-0.82,0-1.24,0.428-1.24,1.129v2.178h-3.18v-5.664
				h3.18l-0.075,0.758h0.075c0.564-0.746,1.146-0.906,2.216-0.885V74.578z"/>
			<path fill="#FFFFFF" d="M86.467,76.828h-0.074c-0.579,0.533-1.096,0.879-1.999,0.879c-1.769,0-2.761-1.56-2.761-2.937
				c0-1.427,1.006-2.985,2.849-2.985c0.792,0,1.442,0.241,1.911,0.801h0.074l-0.094-0.674h3.108v5.664h-3.108L86.467,76.828z
				 M85.618,75.548c0.6,0,0.85-0.416,0.85-0.852c0-0.438-0.342-0.759-0.85-0.759c-0.505,0-0.822,0.362-0.822,0.778
				C84.795,75.167,85.038,75.548,85.618,75.548"/>
			<path fill="#FFFFFF" d="M95.444,76.734h-0.072c-0.533,0.576-1.287,0.971-2.131,0.971c-1.775,0-2.713-1.558-2.713-2.914
				c0-1.406,0.875-3.006,2.721-3.006c0.742,0,1.53,0.362,1.974,0.883h0.11l-0.15-1.354v-2.389h3.177v8.65h-2.973L95.444,76.734z
				 M93.657,74.736c0,0.432,0.281,0.812,0.812,0.812c0.492,0,0.828-0.447,0.828-0.832c0-0.395-0.35-0.776-0.828-0.776
				C93.938,73.94,93.657,74.324,93.657,74.736"/>
			<path fill="#FFFFFF" d="M99.801,71.912h3.176v5.666h-3.176V71.912z M103.14,70.164c0,0.93-0.841,1.336-1.75,1.336
				c-0.916,0-1.745-0.406-1.745-1.336c0-0.822,0.75-1.32,1.745-1.32S103.14,69.339,103.14,70.164"/>
			<path fill="#FFFFFF" d="M104.729,75.369l0.193,0.106c0.438,0.235,1.086,0.521,1.629,0.521c0.205,0,0.463-0.094,0.463-0.309
				c0-0.307-0.381-0.318-0.641-0.352c-1.057-0.129-2.045-0.502-2.045-1.568c0-1.42,1.651-1.982,3.057-1.982
				c0.812,0,1.824,0.139,2.535,0.48l-0.776,1.564c-0.403-0.254-0.946-0.469-1.466-0.469c-0.198,0-0.451,0.059-0.451,0.256
				c0,0.279,0.344,0.299,0.79,0.363c1.127,0.156,2.052,0.5,2.052,1.645c0,1.471-1.688,2.08-3.164,2.08
				c-1.035,0-2.048-0.281-2.996-0.629L104.729,75.369z"/>
			<path fill="#FFFFFF" d="M114.674,76.179c-0.633,0-0.739-0.459-0.75-0.9h-0.006v-0.145h4.621c0.113-2.078-1.699-3.348-4.002-3.348
				c-2.082,0-3.754,1.17-3.754,3.047c0,1.953,1.885,2.875,3.941,2.875c1.471,0,3.188-0.611,3.648-1.918h-3.086
				C115.197,76.016,114.971,76.179,114.674,76.179z M114.633,73.296c0.462,0,0.775,0.351,0.775,0.742h-1.484
				C113.924,73.643,114.159,73.296,114.633,73.296z"/>
		</g>
	</g>
</g>
</svg>
