<?xml version="1.0" encoding="utf-8"?>
<!-- Generator: Adobe Illustrator 16.0.0, SVG Export Plug-In . SVG Version: 6.00 Build 0)  -->
<!DOCTYPE svg PUBLIC "-//W3C//DTD SVG 1.1//EN" "http://www.w3.org/Graphics/SVG/1.1/DTD/svg11.dtd">
<svg version="1.1" id="Layer_1" xmlns="http://www.w3.org/2000/svg" xmlns:xlink="http://www.w3.org/1999/xlink" x="0px" y="0px"
	 width="476px" height="172px" viewBox="0 0 476 172" enable-background="new 0 0 476 172" xml:space="preserve">
<rect x="-0.5" y="-0.5" width="476" height="172"/>
<text transform="matrix(1.0012 0 0 1 190.4229 101.145)" fill="#FFFFFF" font-family="'UTM-Bebas'" font-size="77.5067" letter-spacing="-0.999">FREE</text>
<g>
	<g>
		<path fill-rule="evenodd" clip-rule="evenodd" fill="#FFFFFF" stroke="#000000" stroke-width="2" stroke-miterlimit="10" d="
			M136.767,106.971c0,2.776,0.108,4.746-0.021,6.699c-0.37,5.656-3.158,9.869-7.995,12.733c-2.531,1.5-5.314,2.132-8.264,2.064
			c-1.688-0.039-3.379,0.025-5.065-0.023c-0.607-0.017-0.997,0.173-1.396,0.612c-5.131,5.652-11.498,9.146-19.019,10.308
			c-8.356,1.29-16.152-0.431-23.234-5.109c-2.272-1.5-4.325-3.277-6.126-5.321c-0.311-0.35-0.589-0.485-1.037-0.481
			c-1.998,0.02-3.998,0.008-5.996,0.008c-8.086,0-14.894-5.997-15.744-14.065c-0.473-4.479-0.524-9.01,0.025-13.479
			c0.878-7.134,6.542-12.632,13.457-13.584c2.374-0.326,4.746-0.108,7.117-0.179c0.467-0.013,0.829-0.07,1.152-0.469
			c2.883-3.569,6.377-6.42,10.454-8.512c3.751-1.923,7.754-3.076,11.966-3.421c9.87-0.81,18.338,2.377,25.56,9.042
			c0.73,0.674,1.465,1.384,2.014,2.2c0.66,0.981,1.462,1.201,2.585,1.178c2.745-0.061,5.517-0.252,8.19,0.621
			c6.046,1.975,9.806,6.049,11.149,12.276C137.088,102.616,136.641,105.213,136.767,106.971z"/>
		<path fill-rule="evenodd" clip-rule="evenodd" fill="#020202" d="M85.521,125.392c4.377-3.554,6.5-7.96,6.429-13.462
			c-0.043-3.437-0.191-6.882,0.105-10.316c0.53-6.148,5.868-11.284,12.085-11.407c5.959-0.115,11.925-0.096,17.881,0.04
			c5.641,0.127,11.035,5.121,11.607,10.727c0.459,4.484,0.454,9.009,0.019,13.49c-0.61,6.291-6.671,11.203-12.983,11.012
			c-5.232-0.155-10.475-0.047-15.712-0.046c-6.339,0.004-12.676,0.018-19.014,0.026C85.845,125.456,85.752,125.428,85.521,125.392z"
			/>
		<path fill-rule="evenodd" clip-rule="evenodd" fill="#020202" d="M50.818,96.867c1.828,0,3.583,0.014,5.338-0.01
			c0.445-0.005,0.537,0.155,0.612,0.574c0.65,3.61,1.179,7.242,1.687,11.146c0.482-2.596,0.908-4.938,1.357-7.276
			c0.245-1.279,0.562-2.547,0.78-3.83c0.083-0.491,0.269-0.62,0.729-0.611c1.309,0.022,2.623,0.057,3.928-0.014
			c0.638-0.035,0.854,0.223,0.949,0.756c0.629,3.507,1.526,6.965,2.103,10.542c0.129-0.805,0.265-1.606,0.388-2.41
			c0.419-2.749,0.854-5.493,1.238-8.245c0.081-0.573,0.357-0.632,0.827-0.627c1.448,0.016,2.896,0.026,4.341-0.018
			c0.71-0.023,0.83,0.169,0.659,0.861c-1.161,4.726-2.279,9.463-3.411,14.196c-0.39,1.632-0.815,3.259-1.153,4.904
			c-0.13,0.652-0.427,0.804-1.04,0.783c-1.205-0.044-2.415-0.07-3.617,0.009c-0.708,0.048-0.969-0.225-1.089-0.852
			c-0.639-3.335-1.387-6.646-1.881-10.007c-0.039-0.258,0.045-0.58-0.398-0.715c-0.469,3.446-1.256,6.833-1.886,10.247
			c-0.193,1.045-0.56,1.466-1.65,1.326c-0.849-0.107-1.731-0.104-2.581-0.001c-1.053,0.127-1.46-0.234-1.702-1.286
			c-1.412-6.146-2.909-12.274-4.371-18.412C50.902,97.602,50.882,97.291,50.818,96.867z"/>
		<path fill-rule="evenodd" clip-rule="evenodd" fill="#020202" d="M83.793,110.071c0,2.235-0.022,4.472,0.014,6.707
			c0.011,0.622-0.135,0.843-0.793,0.816c-1.271-0.053-2.548-0.04-3.821-0.005c-0.55,0.015-0.782-0.091-0.778-0.716
			c0.026-4.542,0.027-9.082-0.002-13.623c-0.004-0.649,0.287-0.728,0.797-0.723c1.271,0.015,2.546,0.034,3.819,0
			c0.638-0.018,0.791,0.211,0.78,0.835C83.766,105.599,83.793,107.834,83.793,110.071z"/>
		<path fill-rule="evenodd" clip-rule="evenodd" fill="#FFFFFF" d="M101.189,85.644c-0.62,0-1.243,0.034-1.859-0.009
			c-0.771-0.053-0.703,0.303-0.445,0.794c0.455,0.864,1.62,1.114,2.479,0.541c0.225-0.148,0.342-0.489,0.654-0.458
			c0.554,0.05,1.342-0.296,1.606,0.19c0.259,0.475-0.394,0.956-0.78,1.33c-0.955,0.928-2.938,1.08-4.364,0.374
			c-1.236-0.614-1.943-2.018-1.784-3.542c0.31-2.976,2.58-4.415,5.236-3.32c1.324,0.545,2.27,2.413,1.946,3.752
			c-0.1,0.414-0.367,0.341-0.622,0.344C102.566,85.649,101.877,85.643,101.189,85.644z"/>
		<path fill-rule="evenodd" clip-rule="evenodd" fill="#FFFFFF" d="M93.808,85.644c-0.689,0-1.378,0.015-2.066-0.004
			c-0.536-0.015-0.556,0.227-0.394,0.638c0.367,0.925,1.747,1.413,2.479,0.722c0.574-0.54,1.153-0.465,1.788-0.504
			c0.787-0.049,0.694,0.332,0.401,0.792c-0.894,1.409-2.263,1.66-3.782,1.51c-1.297-0.127-2.507-1.065-2.805-2.24
			c-0.213-0.833-0.27-1.676-0.076-2.544c0.438-1.948,2.035-3.076,4.04-2.787c1.94,0.28,3.193,1.907,3.039,3.879
			c-0.033,0.416-0.187,0.539-0.559,0.536c-0.689-0.009-1.377-0.004-2.065-0.004C93.808,85.64,93.808,85.643,93.808,85.644z"/>
		<path fill-rule="evenodd" clip-rule="evenodd" fill="#FFFFFF" d="M92.276,131.95c0.005-2.363,1.392-3.914,3.589-3.875
			c2.667,0.043,3.709,1.633,3.793,3.939c0.084,2.239-1.512,3.826-3.694,3.815C93.447,135.817,92.192,134.054,92.276,131.95z"/>
		<path fill-rule="evenodd" clip-rule="evenodd" fill="#FFFFFF" d="M82.916,130.517c-0.835-0.034-1.715,0.353-2.352-0.645
			c-0.251-0.395-0.9-0.213-1.37-0.129c-0.259,0.046-0.389,0.271-0.399,0.537c-0.011,0.283,0.13,0.422,0.41,0.489
			c0.765,0.182,1.538,0.356,2.28,0.606c1.177,0.397,1.788,1.233,1.673,2.173c-0.14,1.153-0.973,1.955-2.16,2.151
			c-0.789,0.132-1.567,0.133-2.348-0.017c-0.627-0.121-1.191-0.388-1.562-0.914c-0.315-0.448-0.811-0.957-0.342-1.52
			c0.279-0.334,1.654,0.079,1.912,0.479c0.356,0.565,1.908,0.754,2.321,0.26c0.331-0.396,0.156-0.724-0.281-0.868
			c-0.652-0.209-1.32-0.363-1.98-0.537c-1.375-0.358-1.964-0.969-1.942-2.021c0.023-1.175,0.831-2.014,2.08-2.335
			c0.773-0.2,1.505-0.092,2.235,0.062C82.188,128.522,82.69,129.174,82.916,130.517z"/>
		<path fill-rule="evenodd" clip-rule="evenodd" fill="#030404" d="M84.22,98.328c-0.007,1.562-1.238,2.626-3.056,2.641
			c-1.829,0.013-3.143-1.117-3.135-2.691c0.01-1.461,1.453-2.653,3.149-2.605C83.004,95.727,84.227,96.793,84.22,98.328z"/>
		<path fill-rule="evenodd" clip-rule="evenodd" fill="#FFFFFF" d="M86.516,82.235c0.274-0.255,0.45-0.468,0.67-0.615
			c0.457-0.299,1.125-0.697,1.458-0.275c0.289,0.368,0.134,1.119,0.099,1.694c-0.016,0.269-0.332,0.149-0.52,0.166
			c-1.296,0.123-1.69,0.52-1.723,1.805c-0.021,0.928-0.072,1.865,0.015,2.785c0.083,0.871-0.393,0.786-0.975,0.812
			c-0.663,0.028-0.976-0.071-0.947-0.86c0.066-1.787-0.003-3.579,0.04-5.366c0.009-0.341-0.378-0.999,0.433-0.996
			C85.674,81.384,86.508,81.038,86.516,82.235z"/>
		<path fill-rule="evenodd" clip-rule="evenodd" fill="#FFFFFF" d="M99.18,107.235c0-3.165,0.017-6.331-0.016-9.495
			c-0.005-0.667,0.171-0.883,0.864-0.88c5.478,0.021,10.953,0.018,16.43-0.013c0.601-0.003,0.668,0.235,0.66,0.722
			c-0.021,1.101-0.042,2.204,0.017,3.301c0.038,0.714-0.177,0.942-0.913,0.936c-3.513-0.036-7.026,0.005-10.54-0.036
			c-0.66-0.007-0.81,0.171-0.779,0.79c0.051,1.03,0.051,2.067-0.001,3.097c-0.029,0.612,0.194,0.73,0.762,0.726
			c3.099-0.025,6.199,0.02,9.299-0.025c0.777-0.01,1.029,0.194,0.974,0.977c-0.069,0.959-0.064,1.929-0.002,2.888
			c0.05,0.782-0.153,1.062-1.003,1.047c-3.066-0.054-6.132,0.007-9.198-0.039c-0.713-0.01-0.85,0.214-0.832,0.865
			c0.045,1.581-0.012,3.165,0.025,4.747c0.016,0.591-0.167,0.754-0.746,0.737c-1.31-0.042-2.622-0.065-3.927,0.005
			c-0.838,0.045-1.119-0.175-1.101-1.058c0.055-3.095,0.021-6.192,0.021-9.29C99.176,107.235,99.179,107.235,99.18,107.235z"/>
		<path fill-rule="evenodd" clip-rule="evenodd" fill="#FFFFFF" d="M120.414,110.037c0-2.269,0.013-4.54-0.011-6.808
			c-0.005-0.504,0.076-0.694,0.654-0.669c1.341,0.059,2.685,0.041,4.025,0.008c0.545-0.016,0.701,0.163,0.698,0.701
			c-0.018,4.537-0.017,9.075,0.003,13.614c0.001,0.557-0.198,0.701-0.719,0.691c-1.308-0.028-2.617-0.041-3.923,0.006
			c-0.592,0.022-0.757-0.16-0.75-0.736c0.028-2.27,0.012-4.538,0.012-6.807C120.405,110.037,120.41,110.037,120.414,110.037z"/>
		<path fill-rule="evenodd" clip-rule="evenodd" fill="#FEFEFE" d="M123.102,95.706c2.344,0.089,3.615,1.682,2.914,3.568
			c-0.448,1.202-1.5,1.56-2.613,1.66c-1.164,0.104-2.291-0.172-2.97-1.231c-0.553-0.862-0.594-1.8-0.005-2.713
			C121.082,95.983,122.097,95.775,123.102,95.706z"/>
		<path fill-rule="evenodd" clip-rule="evenodd" fill="#FFFFFF" d="M89.404,131.981c0.015,0.521-0.047,1.019-0.347,1.47
			c-0.587,0.88-2,0.901-2.488-0.032c-0.501-0.958-0.479-1.994,0.076-2.928c0.57-0.958,1.998-0.817,2.518,0.198
			C89.371,131.097,89.425,131.533,89.404,131.981z"/>
		<path fill-rule="evenodd" clip-rule="evenodd" fill="#FFFFFF" d="M100.329,84.265c-0.17,0-0.349,0.033-0.508-0.006
			c-0.328-0.081-0.856,0.26-0.952-0.218c-0.089-0.443,0.302-0.803,0.715-1.022c0.409-0.217,0.818-0.25,1.271-0.07
			c0.515,0.206,1,0.532,0.915,1.067c-0.086,0.528-0.682,0.144-1.036,0.246C100.609,84.295,100.465,84.265,100.329,84.265z"/>
		<path fill-rule="evenodd" clip-rule="evenodd" fill="#FFFFFF" d="M91.293,84.265c0.152-0.881,0.582-1.388,1.412-1.432
			c0.649-0.033,1.208,0.188,1.528,0.815c0.197,0.385,0.211,0.638-0.349,0.624C93.036,84.25,92.188,84.265,91.293,84.265z"/>
		<path fill-rule="evenodd" clip-rule="evenodd" fill="#FFFFFF" d="M94.311,131.896c0.018-0.479,0.012-0.961,0.283-1.39
			c0.542-0.862,1.685-1.038,2.402-0.365c0.852,0.797,0.858,2.915-0.031,3.669c-0.501,0.425-1.125,0.502-1.727,0.207
			C94.346,133.582,94.306,132.742,94.311,131.896z"/>
	</g>
	<g>
		<path fill-rule="evenodd" clip-rule="evenodd" fill="#FFFFFF" d="M133.28,31.046c-1.939,1.66-3.663,3.544-5.455,5.353
			c-0.52,0.524-0.783,0.593-1.358,0.032c-6.75-6.586-14.731-11.018-23.854-13.37c-6.073-1.565-12.267-2.019-18.491-1.318
			c-12.064,1.363-22.526,6.235-31.268,14.688c-0.579,0.558-0.837,0.492-1.359-0.032c-1.792-1.809-3.515-3.693-5.455-5.353
			c0-0.068,0-0.138,0-0.208c0.942-1.581,2.427-2.631,3.792-3.775c7.594-6.361,16.209-10.721,25.87-12.96
			c3.025-0.701,6.086-1.237,9.214-1.21c0.201,0.002,0.418,0.059,0.59-0.104c2.632,0,5.263,0,7.893,0
			c0.87,0.269,1.771,0.12,2.657,0.18c6.348,0.425,12.351,2.16,18.17,4.636c6.226,2.646,11.773,6.351,16.84,10.799
			c0.824,0.722,1.687,1.433,2.215,2.435C133.28,30.908,133.28,30.978,133.28,31.046z"/>
		<path fill-rule="evenodd" clip-rule="evenodd" fill="#FFFFFF" d="M120.988,43.161c-0.121,0.128-0.227,0.249-0.343,0.364
			c-1.781,1.785-3.58,3.556-5.337,5.365c-0.391,0.402-0.583,0.232-0.887-0.053c-2.875-2.715-6.063-4.969-9.657-6.663
			c-12.887-6.077-28.312-3.81-38.85,5.748c-1.492,1.354-1.491,1.354-2.899-0.054c-1.394-1.395-2.768-2.805-4.193-4.165
			c-0.458-0.438-0.439-0.663,0.012-1.098c4.74-4.555,10.209-7.912,16.412-10.084c5.918-2.07,12.028-2.798,18.239-2.245
			c9.195,0.819,17.396,4.193,24.506,10.116c0.902,0.75,1.75,1.564,2.618,2.353C120.737,42.861,120.841,43,120.988,43.161z"/>
		<path fill-rule="evenodd" clip-rule="evenodd" fill="#FFFFFF" d="M108.948,55.38c-0.376,0.292-0.587,0.422-0.758,0.592
			c-1.666,1.658-3.341,3.307-4.979,4.994c-0.438,0.448-0.685,0.502-1.19,0.041c-3.734-3.42-8.152-5.076-13.22-4.851
			c-4.4,0.196-8.234,1.838-11.465,4.82c-0.54,0.498-0.793,0.443-1.27-0.051c-1.605-1.67-3.247-3.306-4.915-4.914
			c-0.463-0.445-0.551-0.677-0.021-1.163c6.269-5.765,13.655-8.173,22.077-7.151c5.7,0.691,10.666,3.124,14.872,7.058
			C108.299,54.965,108.575,55.115,108.948,55.38z"/>
		<path fill-rule="evenodd" clip-rule="evenodd" fill="#FFFFFF" d="M84.534,64.965c-0.009-2.905,2.248-5.186,5.136-5.192
			c2.888-0.004,5.242,2.256,5.22,5.133c-0.025,3.135-2.48,5.196-5.163,5.215C86.851,70.142,84.542,67.841,84.534,64.965z"/>
	</g>
</g>
<g>
	<text transform="matrix(1.0012 0 0 1 364.6414 31.3232)" fill="#FFFFFF" font-family="'UTM-Bebas'" font-size="26.8443">PARKING</text>
</g>
<g>
	<path fill="none" stroke="#FFFFFF" stroke-miterlimit="10" d="M404.385,136.209c3.846,0.817,6.407,2.283,6.407,3.955
		c0,2.562-6.014,4.639-13.433,4.639c-7.418,0-13.433-2.077-13.433-4.639c0-1.809,2.998-3.375,7.37-4.141"/>
	<path fill="none" stroke="#FFFFFF" stroke-miterlimit="10" d="M401.135,138.621c1.824,0.372,3.033,1.022,3.033,1.76
		c0,1.157-2.966,2.095-6.625,2.095c-3.659,0-6.625-0.938-6.625-2.095c0-0.749,1.243-1.406,3.112-1.775"/>
</g>
<g>
	<path fill="#FFFFFF" d="M397.58,36.362c10.838,0,21.017,4.469,28.656,12.592c7.578,8.058,11.762,18.771,11.762,30.133
		c0,11.362-4.177,22.054-11.755,30.126l-28.663,30.454l-28.656-30.469c-7.579-8.057-11.755-18.749-11.755-30.125
		c0-11.377,4.176-22.069,11.755-30.142C376.562,40.831,386.748,36.362,397.58,36.362"/>
	<ellipse cx="397.583" cy="78.694" rx="29.651" ry="29.616"/>
	<path fill="#FFFFFF" d="M418.97,90.522c-0.64-1.675-2.538-3.062-2.538-3.062s0.42,0.021,0.795,0
		c0.375-0.023,0.97-0.155,1.697-0.419c0.729-0.265,0.244-0.529,0.244-0.529s-0.464-0.706-0.772-1.124
		c-0.309-0.419-1.61-1.83-2.824-2.843c-1.214-1.014-3.773-1.543-3.773-1.543s0.243-0.881,0.287-1.542
		c0.044-0.662-0.354-2.38-0.552-3.57c-0.198-1.189-1.303-3.616-1.367-3.812c-0.067-0.199-0.023-0.156,0.264-0.222
		c0.286-0.065,0.486-0.353,0.749-0.859c0.266-0.506,0.354-2.137,0.354-2.424c0-0.287-0.044-0.859-0.132-0.992
		c-0.089-0.133-0.729-0.176-1.038-0.266c-0.31-0.088-0.992-0.108-1.258-0.108c-0.264,0-1.391,0.108-1.391,0.108
		s-0.108-0.088-0.397-0.175c-0.286-0.088-0.484,0.155-0.638,0c-0.155-0.153-0.133-0.153-0.133-0.153l-0.11-0.264
		c0,0,0.243,0.021,0.459,0.021c0.218,0,0.335-0.11,0.335-0.11s-0.199-0.266-0.31-0.397c-0.11-0.132,0.176-0.177,0.176-0.177
		l0.95,0.33c0,0,1.19,0.419,1.257,0.419c0.066,0,0.264,0.154,0.286,0c0.022-0.155-0.331-0.131-0.463-0.287
		c-0.134-0.154-1.522-0.549-1.811-0.748c-0.286-0.199-0.109-0.265-0.109-0.53c0-0.263-0.111-0.837-0.111-0.837
		s1.92-3.372,2.119-3.703c0.198-0.331,0.198-0.596,0.198-0.792c0-0.199-0.814-0.494-0.814-0.494s-0.045-0.588-0.133-1.072
		c-0.088-0.485-0.352-0.045-0.53,0.287c-0.177,0.33-0.574,2.071-0.574,2.071c-0.12,0.51,0.089,0.507,0.177,0.464
		c0.089-0.046,0.575-0.662,0.673-0.815c0.1-0.154,0.31-0.771,0.31-0.771s0.275,0.109,0.584,0.263
		c0.309,0.155,0.056,0.519,0.056,0.519l-1.335,2.392l-0.904,1.476c0,0,0,0,0-0.089c0-0.087-0.034-0.274-0.088-0.309
		c-0.057-0.033-0.222-0.175-0.354-0.429c-0.133-0.254-0.166-0.121-0.354-0.088c-0.187,0.033-1.754,0.639-1.843,0.694
		c-0.087,0.056,0.034,0.375,0.111,0.408c0.077,0.032,0,0.164-0.077,0.286c-0.078,0.121-0.198,0.034-0.254-0.066
		c-0.054-0.099-0.264,0-0.474,0.1c-0.209,0.099,0.034,0.353,0.166,0.584s0.055,0.286,0.11,0.651c0.055,0.361,0.12,0.395-0.012,0.517
		c-0.131,0.122-0.309,0.111-0.286,0c0.021-0.111-0.232-0.683-0.264-0.803c-0.034-0.122-0.342-0.245-0.542-0.333
		c-0.197-0.088-0.374,0.145-0.749,0.276c-0.375,0.132-0.364,0.034-0.364,0.034s-2.184-2.502-2.35-2.778
		c-0.165-0.275-0.573-0.616-0.573-0.616s0.133-0.167,0.197-0.3c0.066-0.131,0.311-0.639,0.408-1.013
		c0.099-0.375-0.055-0.969-0.309-1.279c-0.253-0.308-0.618-0.472-1.18-0.439c-0.563,0.033-1.213,0.891-1.345,1.156
		s-0.243,0.97-0.099,1.609c0.143,0.64,0.705,0.837,1.182,0.925c0.479,0.088,0.946-0.484,0.946-0.484l0.265,0.242l0.927,1.112
		c0,0,1.49,1.731,1.643,1.929c0.155,0.198-0.115,0.244-0.115,0.244s-0.524-0.441-0.656-0.509c-0.133-0.066-0.177,0.2-0.354,0.155
		c-0.176-0.044-0.948,0.242-1.324,0.418c-0.375,0.177-0.529,0.596-0.529,0.596s-2.096,0.704-2.406,0.859
		c-0.309,0.153-0.242,0.132-0.287,0.595c-0.043,0.463,0.596,0.507,0.707,0.419c0.109-0.088,0.175-0.066,0.573-0.221
		s1.279-0.508,1.523-0.528c0.241-0.022,0.264-0.112,0.331-0.089c0.065,0.023,0.332,0.109,0.507,0.067
		c0.177-0.044,0.685-0.198,0.772-0.308c0.089-0.113,0.177-0.155,0.531-0.177c0.352-0.024,0.374,0.507,0.374,0.507l-0.397,0.441
		l-1.059,0.946c0,0-0.818,0.926-0.905,1.102c-0.088,0.177-0.044,0.265,0.11,0.485c0.155,0.221,0.487-0.087,0.508-0.198
		c0.022-0.109-0.243-0.396-0.243-0.396s0.375-0.441,0.708-0.75c0.33-0.308,0.86-0.596,0.992-0.729
		c0.131-0.131,0.618-0.108,0.883-0.219c0.263-0.111,0.242-0.309,0.374-0.596c0.132-0.287,0.155-0.33,0.375-0.33
		c0.222,0,0.529-0.2,0.662-0.2c0.132,0-0.044,0.42-0.022,0.619c0.022,0.198,0.265,0.485,0.265,0.485s-0.155,0.264-0.265,0.264
		c-0.11,0-0.506,0.617-0.506,0.617s-0.023,0.132-0.242,0.285c-0.222,0.157-0.332,0.597-0.53,0.905
		c-0.198,0.308-0.022,0.97,0.264,2.204c0.289,1.233,1.235,4.516,1.567,5.686c0.331,1.167,0.375,2.423,0.398,3.922
		c0.021,1.499-0.597,2.733-0.597,2.733s-3.221-1.609-3.795-1.939c-0.574-0.332-3.089-1.72-3.223-1.832
		c-0.131-0.108-0.021-2.158-0.042-2.709c-0.022-0.551,0.111-0.881,0.111-0.881s0.506-1.037,0.639-1.433
		c0.133-0.396,0.044-0.816,0.044-0.816s0.375-0.088,0.618-0.198c0.244-0.11,0.288-0.331,0.2-1.234
		c-0.089-0.903-0.42-1.543-1.06-2.093c-0.641-0.552-2.141-0.418-3.266-0.485c-1.125-0.067-1.435-0.484-2.252-1.211
		c-0.814-0.729-2.139-1.124-3.905-1.697c-1.764-0.573-2.978-0.419-3.706-0.397c-0.728,0.022-1.456,0.375-1.456,0.375
		s-0.309,0.023-0.794,0.199c-0.485,0.177-0.642,0.594-0.861,0.969c-0.22,0.375,0.111,1.63,0.111,1.63s-0.441,0.639-0.685,0.971
		c-0.244,0.329-0.617,0.484-0.927,0.638c-0.308,0.154-1.324,1.719-1.324,1.719l-0.265,0.552c0,0-0.109,0-0.219,0
		c-0.111,0-0.574,0.087-0.795,0.22c-0.221,0.133-0.265,0.574-0.243,0.837c0.022,0.265,0.53,0.44,0.53,0.44s-0.332,0.771-0.486,1.323
		s-0.021,0.595-0.021,0.595l0.64-0.044c0,0-0.088,0.441-0.309,1.013c-0.221,0.573-0.596,0.596-0.838,0.684
		c-0.242,0.086-0.132,0.859-0.132,0.859s-0.11,0.331-0.11,0.463c0,0.132,0.904-0.065,1.721-0.288
		c0.816-0.218,0.926-0.638,0.926-0.638l0.222,0.441c0,0-0.023,0.552-0.068,0.772c-0.042,0.22-0.241,0.483-0.241,0.483
		s-0.242-0.285-0.53-0.418c-0.286-0.132-0.883,0.155-1.258,0.352c-0.375,0.198-0.375,1.256-0.33,1.698
		c0.044,0.44,1.699,1.21,1.699,1.21s0.265,0.927,0.485,1.853c0.221,0.926,1.279,2.181,2.493,3.195
		c1.215,1.013,2.539,0.705,3.665,0.395c1.125-0.308,1.764-1.432,1.764-1.432s0.464,0.266,0.86,0.441
		c0.397,0.175,4.348,0.242,4.897,0.22c0.553-0.022,0.906-0.286,1.014-0.286c0.112,0,5.495,1.366,6.357,1.498
		c0.86,0.132,1.786,0.155,2.316,0c0.53-0.152,0.418-0.264,0.882-0.418c0.463-0.153,1.28-0.616,1.28-0.616s0.396,0.065,1.124,0.175
		c0.73,0.11,2.009-0.132,2.009-0.132s0.133,1.256,0.11,1.344c-0.021,0.089,0.044,1.5,0.264,2.624
		c0.221,1.123,1.611,2.887,2.097,3.372c0.485,0.484,1.656,1.233,2.603,1.587c0.95,0.353,1.722,0.375,3.288,0.218
		c1.566-0.152,2.759-1.388,3.267-1.982c0.507-0.596,1.081-1.983,1.17-3.107C419.698,92.99,419.611,92.197,418.97,90.522z
		 M381.042,69.63c0.178-0.617,1.016-0.861,1.016-0.861c-0.154,0.177-0.266,0.706-0.331,0.949c-0.066,0.243,0.022,0.661,0.022,0.661
		l-0.708,0.573c0,0,0,0,0-0.111C381.042,70.731,380.866,70.246,381.042,69.63z M383.734,88.736c-0.221,0.221-0.42,0.508-1.147,0.749
		c-0.728,0.243-1.633-0.286-2.56-1.035c-0.927-0.75-1.279-2.6-1.279-2.6s2.735,1.851,3.066,2.048c0.331,0.199,0.53,0,0.772-0.2
		c0.242-0.201,0.464,0.046,0.728,0.224c0.265,0.176,0.861,0.11,0.861,0.11S383.955,88.516,383.734,88.736z M384.265,85.739
		c-0.067,0.353-0.221,0.903-0.221,0.903s-0.31-0.263-0.486-0.683c-0.176-0.418-0.022-0.462-0.596-0.771
		c-0.574-0.308-2.449-1.367-2.449-1.367l-1.39-0.97c0.067-0.022,0.816-1.278,2.007-0.969c1.192,0.308,1.744,0.947,2.031,1.278
		c0.286,0.331,0.573,0.529,0.683,0.86C383.955,84.351,384.33,85.388,384.265,85.739z M403.538,72.769
		c-0.873,0.155-0.828-0.496-0.906-0.783c-0.077-0.285,0.297-0.771,0.297-0.771c0.19-0.297,0.707-0.22,1.048-0.12
		c0.343,0.099,0.509,0.474,0.529,0.783C404.53,72.186,404.41,72.616,403.538,72.769z M405.016,67.458
		c-0.056,0.199-0.375,0.385-0.618,0.397c-0.242,0.011-0.508-0.354-0.629-0.463c-0.121-0.11,0.204-0.299,0.254-0.331
		c0.168-0.109,0.817,0,0.994,0C405.192,67.062,405.07,67.26,405.016,67.458z M409.637,69.44c0.155-0.758,1.081-1.584,1.081-1.584
		c0.233-0.229,0.32,0.077,0.53,0.451c0.21,0.375,0.111,1.08,0.066,1.509c-0.044,0.43-0.464,1.412-0.596,1.565
		c-0.133,0.154-0.466,0.511-0.838,0.132C409.51,71.136,409.483,70.203,409.637,69.44z M416.278,96.186
		c-0.727,1.345-2.669,1.477-3.816,1.28c-1.147-0.199-2.229-1.191-2.967-2.05c-0.74-0.86-1.114-2.381-0.894-3.659
		c0.22-1.278,1.786-2.557,1.786-2.557l1.016,2.226c0,0-0.155,0.375-0.42,0.97c-0.265,0.594,0.354,1.344,0.684,1.917
		c0.331,0.574,1.567,0.662,2.053,0.596c0.484-0.066,1.057-0.728,1.301-1.5c0.243-0.771-0.2-1.718-0.685-2.203
		c-0.485-0.485-1.743-0.308-1.743-0.308l-0.861-2.117c0,0,0.177,0,0.442,0c0.265,0,0.596,0.066,1.036,0.132
		c0.442,0.066,1.479,0.572,2.119,1.168c0.64,0.597,1.103,1.411,1.457,2.094C417.139,92.857,417.007,94.842,416.278,96.186z"/>
</g>
</svg>
