<svg xmlns="http://www.w3.org/2000/svg" id="videoMaskhuge" viewBox="0 0 1647.9 2424" width="100%" height="100%"><path class="bbst0" d="M.1 2v2430H1650V2H.1zm951.4 1260.8c-17.4 6.7-23.4 20.8-48.9 27.3-10.3 2.5-10.4 11-.5 16.6 2.7 1.5 7.1 11.2-18.7 2.3-10.6-3.7-20-12.1-27.5 2.1-1.1 2-3.4 2.8-5.3 1.7-3.2-1.8-7.3-5.1-12.4-10.3-1.7-1.7-3.4-4-5.3-5.1-2.8-1.6-6.4 1.1-6.7 4.3-.3 2.8-1.3 13-2.5 19.6-1.3 6.6-3.1 13.2-5.8 20.1l-.1.1c-1.5 3.7-5.7 5.8-9.4 4.3-3.9-1.4-5.7-5.8-4.1-9.5.4-1.1 1.2-2 2-2.7 4.3-3.7 7.6-8.9 10.2-14.5 2.5-5.7 4.8-14.6 5.3-17.9.4-2.9-2.5-5-5.1-3.8-2.3 1.2-16.1 13.7-19.3 15.5-1.9 1-4.3.2-5.3-1.7-7.6-14.2-16.9-5.7-27.5-2.1-25.7 8.8-21.4-.8-18.7-2.3 9.9-5.6 9.7-14-.5-16.6-25.5-6.5-31.6-20.7-48.9-27.3-3.3-1.3-1.5-5.1 1.8-6.4 6.5-2.5 17.1-5.4 26.4-11.8.2-.2.8-.4.9-1 .6-3.7-7.6-9.8-7.6-9.8-7.4-6.1-16-12.9-19.4-17.9-6.9-10.3-1.5-10.9 4.3-11.1 16-.5-2.9-28.3-4-33.9-1.2-5.4 2.5-8.1 5.9-7.4 4.3.9 21.4 11.5 29.6 12.4 8.4.9 9.2-3.6 11.4-5.4 5.8-4.6 15.1 7.5 18.8 10.5 3.7 3.1 10 6.3 14.3 2.8 4.3-3.6 2.3-10.7.8-15.5-2.8-8.5-3.7-15.6-3.9-21-.3-2.4-.6-7.3-1.3-10.1-.7-2.9 2-5.8 4.6-1.8 2.7 4 5.6 7.3 11.3 4.9 8.9-3.8 4-23.8 11.9-23.8 13.4 0 19.4-24.2 19.7-27.9.2-2.1 1.3-2.8 2.2-2.8s2.1.7 2.1 2.9c.4 3.7 6.4 27.9 19.7 27.9 7.8 0 3 20.1 11.9 23.8 5.8 2.4 8.7-.8 11.3-4.9 2.7-4 5.3-1 4.6 1.8-.7 2.8-1.1 7.6-1.3 10.1-.2 5.4-1.1 12.5-3.9 21-1.5 4.8-3.1 14.3 1.2 17.8 4.4 3.5 10.3-2.1 14-5.1 3.7-3.1 13.1-15.1 18.8-10.5 2.2 1.8 3.1 6.4 11.4 5.4 8.2-.9 25.3-11.5 29.6-12.4 3.4-.8 7 1.9 5.9 7.4-1.2 5.5-20 33.4-4 33.9 5.8.2 11.3.7 4.3 11.1-2.3 3.5-9.7 13.5-18.7 19.9-6.4 4.2-5.1 8.7-1.4 11.5 5.6 3.6 14.6 6.6 20.5 8.9 3 1.2 4.8 5.1 1.3 6.4z"></path></svg>